<?xml version="1.0" encoding="UTF-8" standalone="no"?><!DOCTYPE svg PUBLIC "-//W3C//DTD SVG 1.1//EN" "http://www.w3.org/Graphics/SVG/1.1/DTD/svg11.dtd"><svg width="100%" height="100%" viewBox="0 0 206 200" version="1.1" xmlns="http://www.w3.org/2000/svg" xmlns:xlink="http://www.w3.org/1999/xlink" xml:space="preserve" xmlns:serif="http://www.serif.com/" style="fill-rule:evenodd;clip-rule:evenodd;stroke-linejoin:round;stroke-miterlimit:1.41421;"><ellipse cx="102.966" cy="99.615" rx="102.966" ry="99.615" style="fill:#e8e8e8;"/><g id="Q"><path d="M155.336,154.241c0,-1.974 -1.602,-3.576 -3.576,-3.576l-69.337,0c-1.974,0 -3.576,1.602 -3.576,3.576l0,7.154c0,1.974 1.602,3.577 3.576,3.577l69.337,0c1.974,0 3.576,-1.603 3.576,-3.577l0,-7.154Z" style="fill:#2b439f;"/><path d="M83.077,23.054c39.163,0 70.959,31.796 70.959,70.959c0,39.163 -31.796,70.959 -70.959,70.959c-39.163,0 -70.958,-31.796 -70.958,-70.959c0,-39.163 31.795,-70.959 70.958,-70.959Zm19.326,49.614c18.308,0 33.172,14.605 33.172,32.594c0,17.99 -14.864,32.595 -33.172,32.595c-18.308,0 -33.171,-14.605 -33.171,-32.595c0,-6.933 2.208,-13.363 5.969,-18.649c5.999,-8.429 15.95,-13.945 27.202,-13.945Z" style="fill:#008bdd;"/></g><g id="_-" serif:id="!"><circle cx="163.815" cy="157.284" r="7.688" style="fill:#2b439f;"/><path d="M163.791,146.275c0,0 7.822,-61.265 7.711,-87.507c-0.019,-4.461 -3.656,-8.067 -8.117,-8.048c-4.461,0.019 -8.068,3.656 -8.049,8.117c0.112,26.241 8.455,87.438 8.455,87.438Z" style="fill:#008bdd;"/><path d="M163.791,146.275c0,0 7.822,-61.265 7.711,-87.507c-0.019,-4.461 -3.623,-8.184 -8.082,-8.048c-2.389,0.072 10.698,0.371 3.154,21.891c-5.367,15.307 -2.783,73.664 -2.783,73.664Z" style="fill:#2b439f;"/></g></svg>